<svg xmlns="http://www.w3.org/2000/svg" viewBox="0 0 24.99 24.99"><defs><style>.cls-1{fill:#fc8d42;}</style></defs><title>Asset 7</title><g id="Layer_2" data-name="Layer 2"><g id="TEXTS"><path class="cls-1" d="M16,7.06H9a2,2,0,0,0-2,2V16a2,2,0,0,0,2,2H16a2,2,0,0,0,2-2V9.07a2,2,0,0,0-2-2Zm-3.46,9.06a3.6,3.6,0,1,1,3.6-3.59,3.59,3.59,0,0,1-3.6,3.59Zm3.72-6.45a.85.85,0,1,1,.85-.85.85.85,0,0,1-.85.85Z"/><path class="cls-1" d="M12.49,10.45a2.08,2.08,0,1,0,2.08,2.08,2.08,2.08,0,0,0-2.08-2.08Z"/><path class="cls-1" d="M12.49,0A12.5,12.5,0,1,0,25,12.49,12.49,12.49,0,0,0,12.49,0Zm7,16A3.53,3.53,0,0,1,16,19.51H9A3.53,3.53,0,0,1,5.51,16V9.07A3.54,3.54,0,0,1,9,5.54H16a3.54,3.54,0,0,1,3.53,3.53Z"/></g></g></svg>