<svg xmlns="http://www.w3.org/2000/svg" viewBox="0 0 40.02 40.02"><defs><style>.cls-1{fill:#fc8d42;}.cls-2{fill:#fff;}</style></defs><title>Asset 1</title><g id="Layer_2" data-name="Layer 2"><g id="TEXTS"><circle class="cls-1" cx="20.01" cy="20.01" r="20.01" transform="translate(-4.06 34.88) rotate(-76.72)"/><path class="cls-2" d="M30,25.77l-3.64-2c-1.21-.66-1.25-.22-2.53,1.13-.31.33-.88,1.2-1.56,1-1.42-.35-4.07-2.43-4.93-3.37-.42-.45-2.18-2.61-2.21-3.31,0-1.07,2.31-1.61,1.55-3.64L15,12c-1.52-3.5-5.78,2.1-5.43,4.71.91,6.43,12.2,16.84,18.49,13.41C29.47,29.34,31.36,26.61,30,25.77Z"/></g></g></svg>