<svg xmlns="http://www.w3.org/2000/svg" viewBox="0 0 24.99 24.99"><defs><style>.cls-1{fill:#fc8d42;}</style></defs><title>Asset 5</title><g id="Layer_2" data-name="Layer 2"><g id="TEXTS"><path class="cls-1" d="M12.49,0A12.5,12.5,0,1,0,25,12.49,12.49,12.49,0,0,0,12.49,0Zm6.38,10c0,.13,0,.26,0,.39A8.52,8.52,0,0,1,5.77,17.58a5.79,5.79,0,0,0,.72,0,6,6,0,0,0,3.72-1.28,3,3,0,0,1-2.8-2.08,3.43,3.43,0,0,0,.56.05,2.9,2.9,0,0,0,.79-.1,3,3,0,0,1-2.4-2.94v0a2.94,2.94,0,0,0,1.36.38,3,3,0,0,1-.93-4A8.49,8.49,0,0,0,13,10.74a3.08,3.08,0,0,1-.08-.68A3,3,0,0,1,18.06,8,5.77,5.77,0,0,0,20,7.28a3,3,0,0,1-1.31,1.66,5.93,5.93,0,0,0,1.72-.47A6.14,6.14,0,0,1,18.87,10Z"/></g></g></svg>